<?xml version="1.0" encoding="UTF-8"?>
<!--Generator: Apple Native CoreSVG 232.5-->
<!DOCTYPE svg
PUBLIC "-//W3C//DTD SVG 1.1//EN"
       "http://www.w3.org/Graphics/SVG/1.1/DTD/svg11.dtd">
<svg version="1.1" xmlns="http://www.w3.org/2000/svg" xmlns:xlink="http://www.w3.org/1999/xlink" width="3300" height="2200">
 <!--glyph: "", point size: 100.0, font version: "19.2d2e1", template writer version: "128"-->
 <style>.SFSymbolsPreviewWireframe {fill:none;opacity:1.0;stroke:black;stroke-width:0.5}
</style>
 <g id="Notes">
  <rect height="2200" id="artboard" style="fill:white;opacity:1" width="3300" x="0" y="0"/>
  <line style="fill:none;stroke:black;opacity:1;stroke-width:0.5;" x1="263" x2="3036" y1="292" y2="292"/>
  <text style="stroke:none;fill:black;font-family:sans-serif;font-size:13;font-weight:bold;" transform="matrix(1 0 0 1 263 322)">Weight/Scale Variations</text>
  <text style="stroke:none;fill:black;font-family:sans-serif;font-size:13;text-anchor:middle;" transform="matrix(1 0 0 1 559.711 322)">Ultralight</text>
  <text style="stroke:none;fill:black;font-family:sans-serif;font-size:13;text-anchor:middle;" transform="matrix(1 0 0 1 856.422 322)">Thin</text>
  <text style="stroke:none;fill:black;font-family:sans-serif;font-size:13;text-anchor:middle;" transform="matrix(1 0 0 1 1153.13 322)">Light</text>
  <text style="stroke:none;fill:black;font-family:sans-serif;font-size:13;text-anchor:middle;" transform="matrix(1 0 0 1 1449.84 322)">Regular</text>
  <text style="stroke:none;fill:black;font-family:sans-serif;font-size:13;text-anchor:middle;" transform="matrix(1 0 0 1 1746.56 322)">Medium</text>
  <text style="stroke:none;fill:black;font-family:sans-serif;font-size:13;text-anchor:middle;" transform="matrix(1 0 0 1 2043.27 322)">Semibold</text>
  <text style="stroke:none;fill:black;font-family:sans-serif;font-size:13;text-anchor:middle;" transform="matrix(1 0 0 1 2339.98 322)">Bold</text>
  <text style="stroke:none;fill:black;font-family:sans-serif;font-size:13;text-anchor:middle;" transform="matrix(1 0 0 1 2636.69 322)">Heavy</text>
  <text style="stroke:none;fill:black;font-family:sans-serif;font-size:13;text-anchor:middle;" transform="matrix(1 0 0 1 2933.4 322)">Black</text>
  <line style="fill:none;stroke:black;opacity:1;stroke-width:0.5;" x1="263" x2="3036" y1="1903" y2="1903"/>
  <g transform="matrix(0.2 0 0 0.2 263 1933)">
   <path d="m46.2402 4.15039c21.5332 0 39.4531-17.8711 39.4531-39.4043s-17.9688-39.4043-39.502-39.4043c-21.4844 0-39.3555 17.8711-39.3555 39.4043s17.9199 39.4043 39.4043 39.4043Zm0-7.42188c-17.7246 0-31.8848-14.209-31.8848-31.9824s14.1113-31.9824 31.8359-31.9824c17.7734 0 32.0312 14.209 32.0312 31.9824s-14.209 31.9824-31.9824 31.9824Zm-17.9688-31.9824c0 2.14844 1.51367 3.61328 3.75977 3.61328h10.498v10.5957c0 2.19727 1.46484 3.71094 3.61328 3.71094 2.24609 0 3.71094-1.51367 3.71094-3.71094v-10.5957h10.5957c2.19727 0 3.71094-1.46484 3.71094-3.61328 0-2.19727-1.51367-3.71094-3.71094-3.71094h-10.5957v-10.5469c0-2.24609-1.46484-3.75977-3.71094-3.75977-2.14844 0-3.61328 1.51367-3.61328 3.75977v10.5469h-10.498c-2.24609 0-3.75977 1.51367-3.75977 3.71094Z"/>
  </g>
  <g transform="matrix(0.2 0 0 0.2 281.506 1933)">
   <path d="m58.5449 14.5508c27.2461 0 49.8047-22.6074 49.8047-49.8047 0-27.2461-22.6074-49.8047-49.8535-49.8047-27.1973 0-49.7559 22.5586-49.7559 49.8047 0 27.1973 22.6074 49.8047 49.8047 49.8047Zm0-8.30078c-23.0469 0-41.4551-18.457-41.4551-41.5039s18.3594-41.5039 41.4062-41.5039 41.5527 18.457 41.5527 41.5039-18.457 41.5039-41.5039 41.5039Zm-22.6562-41.5039c0 2.39258 1.66016 4.00391 4.15039 4.00391h14.3555v14.4043c0 2.44141 1.66016 4.15039 4.05273 4.15039 2.44141 0 4.15039-1.66016 4.15039-4.15039v-14.4043h14.4043c2.44141 0 4.15039-1.61133 4.15039-4.00391 0-2.44141-1.70898-4.15039-4.15039-4.15039h-14.4043v-14.3555c0-2.49023-1.70898-4.19922-4.15039-4.19922-2.39258 0-4.05273 1.70898-4.05273 4.19922v14.3555h-14.3555c-2.49023 0-4.15039 1.70898-4.15039 4.15039Z"/>
  </g>
  <g transform="matrix(0.2 0 0 0.2 304.924 1933)">
   <path d="m74.8535 28.3203c34.8145 0 63.623-28.8086 63.623-63.5742 0-34.8145-28.8574-63.623-63.6719-63.623-34.7656 0-63.5254 28.8086-63.5254 63.623 0 34.7656 28.8086 63.5742 63.5742 63.5742Zm0-9.08203c-30.1758 0-54.4434-24.3164-54.4434-54.4922 0-30.2246 24.2188-54.4922 54.3945-54.4922 30.2246 0 54.541 24.2676 54.541 54.4922 0 30.1758-24.2676 54.4922-54.4922 54.4922Zm-28.8574-54.4922c0 2.58789 1.85547 4.39453 4.58984 4.39453h19.7266v19.7754c0 2.68555 1.85547 4.58984 4.44336 4.58984 2.68555 0 4.54102-1.85547 4.54102-4.58984v-19.7754h19.7754c2.68555 0 4.58984-1.80664 4.58984-4.39453 0-2.73438-1.85547-4.58984-4.58984-4.58984h-19.7754v-19.7266c0-2.73438-1.85547-4.63867-4.54102-4.63867-2.58789 0-4.44336 1.9043-4.44336 4.63867v19.7266h-19.7266c-2.73438 0-4.58984 1.85547-4.58984 4.58984Z"/>
  </g>
  <text style="stroke:none;fill:black;font-family:sans-serif;font-size:13;font-weight:bold;" transform="matrix(1 0 0 1 263 1953)">Design Variations</text>
  <text style="stroke:none;fill:black;font-family:sans-serif;font-size:13;" transform="matrix(1 0 0 1 263 1971)">Symbols are supported in up to nine weights and three scales.</text>
  <text style="stroke:none;fill:black;font-family:sans-serif;font-size:13;" transform="matrix(1 0 0 1 263 1989)">For optimal layout with text and other symbols, vertically align</text>
  <text style="stroke:none;fill:black;font-family:sans-serif;font-size:13;" transform="matrix(1 0 0 1 263 2007)">symbols with the adjacent text.</text>
  <line style="fill:none;stroke:#00AEEF;stroke-width:0.5;opacity:1.0;" x1="776" x2="776" y1="1919" y2="1933"/>
  <g transform="matrix(0.2 0 0 0.2 776 1933)">
   <path d="m16.5527 0.78125c2.58789 0 3.85742-0.976562 4.78516-3.71094l6.29883-17.2363h28.8086l6.29883 17.2363c0.927734 2.73438 2.19727 3.71094 4.73633 3.71094 2.58789 0 4.24805-1.5625 4.24805-4.00391 0-0.830078-0.146484-1.61133-0.537109-2.63672l-22.9004-60.9863c-1.12305-2.97852-3.125-4.49219-6.25-4.49219-3.02734 0-5.07812 1.46484-6.15234 4.44336l-22.9004 61.084c-0.390625 1.02539-0.537109 1.80664-0.537109 2.63672 0 2.44141 1.5625 3.95508 4.10156 3.95508Zm13.4766-28.3691 11.8652-32.8613h0.244141l11.8652 32.8613Z"/>
  </g>
  <line style="fill:none;stroke:#00AEEF;stroke-width:0.5;opacity:1.0;" x1="792.836" x2="792.836" y1="1919" y2="1933"/>
  <text style="stroke:none;fill:black;font-family:sans-serif;font-size:13;font-weight:bold;" transform="matrix(1 0 0 1 776 1953)">Margins</text>
  <text style="stroke:none;fill:black;font-family:sans-serif;font-size:13;" transform="matrix(1 0 0 1 776 1971)">Leading and trailing margins on the left and right side of each symbol</text>
  <text style="stroke:none;fill:black;font-family:sans-serif;font-size:13;" transform="matrix(1 0 0 1 776 1989)">can be adjusted by modifying the x-location of the margin guidelines.</text>
  <text style="stroke:none;fill:black;font-family:sans-serif;font-size:13;" transform="matrix(1 0 0 1 776 2007)">Modifications are automatically applied proportionally to all</text>
  <text style="stroke:none;fill:black;font-family:sans-serif;font-size:13;" transform="matrix(1 0 0 1 776 2025)">scales and weights.</text>
  <g transform="matrix(0.2 0 0 0.2 1289 1933)">
   <path d="m14.209 9.32617 8.49609 8.54492c4.29688 4.3457 9.22852 4.05273 13.8672-1.07422l53.4668-58.9355-4.83398-4.88281-53.0762 58.3984c-1.75781 2.00195-3.41797 2.49023-5.76172 0.146484l-5.85938-5.81055c-2.34375-2.29492-1.80664-4.00391 0.195312-5.81055l57.373-54.0039-4.88281-4.83398-57.959 54.4434c-4.93164 4.58984-5.32227 9.47266-1.02539 13.8184Zm32.0801-90.9668c-2.09961 2.05078-2.24609 4.93164-1.07422 6.88477 1.17188 1.80664 3.4668 2.97852 6.68945 2.14844 7.32422-1.70898 14.9414-2.00195 22.0703 2.68555l-2.92969 7.27539c-1.70898 4.15039-0.830078 7.08008 1.85547 9.81445l11.4746 11.5723c2.44141 2.44141 4.49219 2.53906 7.32422 2.05078l5.32227-0.976562 3.32031 3.36914-0.195312 2.7832c-0.195312 2.49023 0.439453 4.39453 2.88086 6.78711l3.80859 3.71094c2.39258 2.39258 5.46875 2.53906 7.8125 0.195312l14.5508-14.5996c2.34375-2.34375 2.24609-5.32227-0.146484-7.71484l-3.85742-3.80859c-2.39258-2.39258-4.24805-3.17383-6.64062-2.97852l-2.88086 0.244141-3.22266-3.17383 1.2207-5.61523c0.634766-2.83203-0.146484-5.0293-3.07617-7.95898l-10.9863-10.9375c-16.6992-16.6016-38.8672-16.2109-53.3203-1.75781Zm7.4707 1.85547c12.1582-8.88672 28.6133-7.37305 39.7461 3.75977l12.1582 12.0605c1.17188 1.17188 1.36719 2.09961 1.02539 3.80859l-1.61133 7.42188 7.51953 7.42188 4.93164-0.292969c1.26953-0.0488281 1.66016 0.0488281 2.63672 1.02539l2.88086 2.88086-12.207 12.207-2.88086-2.88086c-0.976562-0.976562-1.12305-1.36719-1.07422-2.68555l0.341797-4.88281-7.4707-7.42188-7.61719 1.26953c-1.61133 0.341797-2.34375 0.195312-3.56445-0.976562l-10.0098-10.0098c-1.26953-1.17188-1.41602-2.00195-0.634766-3.85742l4.39453-10.4492c-7.8125-7.27539-17.9688-10.4004-28.125-7.42188-0.78125 0.195312-1.07422-0.439453-0.439453-0.976562Z"/>
  </g>
  <text style="stroke:none;fill:black;font-family:sans-serif;font-size:13;font-weight:bold;" transform="matrix(1 0 0 1 1289 1953)">Exporting</text>
  <text style="stroke:none;fill:black;font-family:sans-serif;font-size:13;" transform="matrix(1 0 0 1 1289 1971)">Symbols should be outlined when exporting to ensure the</text>
  <text style="stroke:none;fill:black;font-family:sans-serif;font-size:13;" transform="matrix(1 0 0 1 1289 1989)">design is preserved when submitting to Xcode.</text>
  <text id="template-version" style="stroke:none;fill:black;font-family:sans-serif;font-size:13;text-anchor:end;" transform="matrix(1 0 0 1 3036 1933)">Template v.5.0</text>
  <text style="stroke:none;fill:black;font-family:sans-serif;font-size:13;text-anchor:end;" transform="matrix(1 0 0 1 3036 1951)">Requires Xcode 15 or greater</text>
  <text id="descriptive-name" style="stroke:none;fill:black;font-family:sans-serif;font-size:13;text-anchor:end;" transform="matrix(1 0 0 1 3036 1969)">Generated from xcodeproj.fill</text>
  <text style="stroke:none;fill:black;font-family:sans-serif;font-size:13;text-anchor:end;" transform="matrix(1 0 0 1 3036 1987)">Typeset at 100.0 points</text>
  <text style="stroke:none;fill:black;font-family:sans-serif;font-size:13;" transform="matrix(1 0 0 1 263 726)">Small</text>
  <text style="stroke:none;fill:black;font-family:sans-serif;font-size:13;" transform="matrix(1 0 0 1 263 1156)">Medium</text>
  <text style="stroke:none;fill:black;font-family:sans-serif;font-size:13;" transform="matrix(1 0 0 1 263 1586)">Large</text>
 </g>
 <g id="Guides">
  <g id="H-reference" style="fill:#27AAE1;stroke:none;" transform="matrix(1 0 0 1 339 696)">
   <path d="M0.993654 0L3.63775 0L29.3281-67.1323L30.0303-67.1323L30.0303-70.459L28.1226-70.459ZM11.6885-24.4799L46.9815-24.4799L46.2315-26.7285L12.4385-26.7285ZM55.1196 0L57.7637 0L30.6382-70.459L29.4326-70.459L29.4326-67.1323Z"/>
  </g>
  <line id="Baseline-S" style="fill:none;stroke:#27AAE1;opacity:1;stroke-width:0.5;" x1="263" x2="3036" y1="696" y2="696"/>
  <line id="Capline-S" style="fill:none;stroke:#27AAE1;opacity:1;stroke-width:0.5;" x1="263" x2="3036" y1="625.541" y2="625.541"/>
  <g id="H-reference" style="fill:#27AAE1;stroke:none;" transform="matrix(1 0 0 1 339 1126)">
   <path d="M0.993654 0L3.63775 0L29.3281-67.1323L30.0303-67.1323L30.0303-70.459L28.1226-70.459ZM11.6885-24.4799L46.9815-24.4799L46.2315-26.7285L12.4385-26.7285ZM55.1196 0L57.7637 0L30.6382-70.459L29.4326-70.459L29.4326-67.1323Z"/>
  </g>
  <line id="Baseline-M" style="fill:none;stroke:#27AAE1;opacity:1;stroke-width:0.5;" x1="263" x2="3036" y1="1126" y2="1126"/>
  <line id="Capline-M" style="fill:none;stroke:#27AAE1;opacity:1;stroke-width:0.5;" x1="263" x2="3036" y1="1055.54" y2="1055.54"/>
  <g id="H-reference" style="fill:#27AAE1;stroke:none;" transform="matrix(1 0 0 1 339 1556)">
   <path d="M0.993654 0L3.63775 0L29.3281-67.1323L30.0303-67.1323L30.0303-70.459L28.1226-70.459ZM11.6885-24.4799L46.9815-24.4799L46.2315-26.7285L12.4385-26.7285ZM55.1196 0L57.7637 0L30.6382-70.459L29.4326-70.459L29.4326-67.1323Z"/>
  </g>
  <line id="Baseline-L" style="fill:none;stroke:#27AAE1;opacity:1;stroke-width:0.5;" x1="263" x2="3036" y1="1556" y2="1556"/>
  <line id="Capline-L" style="fill:none;stroke:#27AAE1;opacity:1;stroke-width:0.5;" x1="263" x2="3036" y1="1485.54" y2="1485.54"/>
  <line id="left-margin-Ultralight-S" style="fill:none;stroke:#00AEEF;stroke-width:0.5;opacity:1.0;" x1="516.792" x2="516.792" y1="600.785" y2="720.121"/>
  <line id="right-margin-Ultralight-S" style="fill:none;stroke:#00AEEF;stroke-width:0.5;opacity:1.0;" x1="602.631" x2="602.631" y1="600.785" y2="720.121"/>
  <line id="left-margin-Regular-S" style="fill:none;stroke:#00AEEF;stroke-width:0.5;opacity:1.0;" x1="1404.34" x2="1404.34" y1="600.785" y2="720.121"/>
  <line id="right-margin-Regular-S" style="fill:none;stroke:#00AEEF;stroke-width:0.5;opacity:1.0;" x1="1495.35" x2="1495.35" y1="600.785" y2="720.121"/>
  <line id="left-margin-Black-S" style="fill:none;stroke:#00AEEF;stroke-width:0.5;opacity:1.0;" x1="2885.99" x2="2885.99" y1="600.785" y2="720.121"/>
  <line id="right-margin-Black-S" style="fill:none;stroke:#00AEEF;stroke-width:0.5;opacity:1.0;" x1="2980.81" x2="2980.81" y1="600.785" y2="720.121"/>
 </g>
 <g id="Symbols">
  <g id="Black-S" transform="matrix(1 0 0 1 2885.99 696)">
   <path class="SFSymbolsPreviewWireframe" d="M31.0058-65.0039L62.803-65.0039C67.7064-65.0039 69.4845-64.4934 71.2771-63.5347C73.0696-62.576 74.4765-61.1691 75.4352-59.3766C76.3939-57.584 76.9044-55.8059 76.9044-50.9025L76.9044-19.1053C76.9044-14.2019 76.3939-12.4238 75.4352-10.6312C74.4765-8.83866 73.0696-7.43182 71.2771-6.47313C69.4845-5.51444 67.7064-5.0039 62.803-5.0039L31.0058-5.0039C26.1024-5.0039 24.3243-5.51444 22.5317-6.47313C20.7392-7.43182 19.3323-8.83866 18.3736-10.6312C17.4149-12.4238 16.9044-14.2019 16.9044-19.1053L16.9044-50.9025C16.9044-55.8059 17.4149-57.584 18.3736-59.3766C19.3323-61.1691 20.7392-62.576 22.5317-63.5347C24.3243-64.4934 26.1024-65.0039 31.0058-65.0039ZM78.9046-66.3613C74.7542-70.4629 68.8948-71 62.6448-71L32.8596-71C26.6096-71 20.7503-70.4629 16.5999-66.3613C12.4983-62.2109 12.01-56.4004 12.01-50.1504L12.01-20.3652C12.01-14.0664 12.4983-8.30468 16.5999-4.15429C20.7503-0.0527281 26.5608 0.484381 32.8596 0.484381L62.6448 0.484381C68.8948 0.484381 74.7542-0.0527281 78.9046-4.15429C83.0061-8.30468 83.4944-14.0664 83.4944-20.3652L83.4944-50.1504C83.4944-56.4492 83.0061-62.2109 78.9046-66.3613ZM74.7044-50.3403L74.7044-19.7535C74.7044-16.3394 74.3302-12.3641 72.1321-10.1659C69.934-7.96779 65.9119-7.54687 62.4977-7.54687L31.911-7.54687C28.4969-7.54687 24.4747-7.96779 22.2766-10.1659C20.0785-12.3641 19.7044-16.3394 19.7044-19.7535L19.7044-50.2935C19.7044-53.7544 20.0785-57.7297 22.2766-59.9279C24.4747-62.126 28.4969-62.5469 31.9577-62.5469L62.4977-62.5469C65.9119-62.5469 69.934-62.126 72.1321-59.9279C74.3302-57.7297 74.7044-53.7544 74.7044-50.3403ZM29.1529-22.3976L26.1932-17.4869C26.0885-16.1061 26.4735-15.1083 27.3481-14.4935C28.2228-13.8787 29.4458-13.6996 31.0174-13.9561L35.2092-20.2242C34.4346-21.6731 33.677-22.3976 32.9363-22.3976C32.1955-22.3976 30.9344-22.3976 29.1529-22.3976ZM24.4529-30.2941C20.624-30.2941 20.578-23.9787 24.4529-23.9787C27.0362-23.9787 37.9897-23.9787 57.3135-23.9787L62.7915-14.7292C63.6171-13.2715 64.9166-12.9071 66.6901-13.6359C68.4637-14.3647 69.0572-15.763 68.4707-17.8307L65.0207-23.9787L70.6982-23.9787C72.1688-24.5478 72.9042-25.5472 72.9042-26.9767C72.9042-28.4063 72.1688-29.5121 70.6982-30.2941L61.46-30.2941L51.2114-47.8447L55.1444-55.0958C54.6962-56.3979 54.091-57.2932 53.3286-57.7819C52.5662-58.2706 51.5057-58.3581 50.1473-58.0444L47.4044-54.5066L44.8408-57.7819C43.7305-58.4085 42.6951-58.4085 41.7347-57.7819C40.7743-57.1553 40.2235-56.2599 40.0823-55.0958L43.5348-48.2264L33.6849-30.2941C30.0829-30.2941 27.0056-30.2941 24.4529-30.2941ZM47.7522-41.7669C47.7522-41.7669 45.4668-37.9487 40.8958-30.3123C49.5982-30.1889 53.9494-30.1271 53.9494-30.1271C53.9494-30.1271 47.7522-41.7669 47.7522-41.7669Z"/>
  </g>
  <g id="Regular-S" transform="matrix(1 0 0 1 1404.34 696)">
   <path class="SFSymbolsPreviewWireframe" d="M28.7614-64L60.5586-64C65.462-64 67.2401-63.4895 69.0327-62.5308C70.8252-61.5721 72.2321-60.1652 73.1908-58.3727C74.1495-56.5801 74.66-54.802 74.66-49.8986L74.66-18.1014C74.66-13.198 74.1495-11.4199 73.1908-9.62735C72.2321-7.83476 70.8252-6.42792 69.0327-5.46923C67.2401-4.51054 65.462-4 60.5586-4L28.7614-4C23.858-4 22.0799-4.51054 20.2873-5.46923C18.4948-6.42792 17.0879-7.83476 16.1292-9.62735C15.1705-11.4199 14.66-13.198 14.66-18.1014L14.66-49.8986C14.66-54.802 15.1705-56.5801 16.1292-58.3727C17.0879-60.1652 18.4948-61.5721 20.2873-62.5308C22.0799-63.4895 23.858-64 28.7614-64ZM75.6602-65.3574C71.5098-69.459 65.6504-69.9961 59.4004-69.9961L29.6152-69.9961C23.3652-69.9961 17.5059-69.459 13.3555-65.3574C9.2539-61.207 8.7656-55.3965 8.7656-49.1465L8.7656-19.3613C8.7656-13.0625 9.2539-7.30078 13.3555-3.15039C17.5059 0.951172 23.3164 1.48828 29.6152 1.48828L59.4004 1.48828C65.6504 1.48828 71.5098 0.951172 75.6602-3.15039C79.7617-7.30078 80.25-13.0625 80.25-19.3613L80.25-49.1465C80.25-55.4453 79.7617-61.207 75.6602-65.3574ZM72.46-49.3364L72.46-18.7496C72.46-15.3355 72.0858-11.3602 69.8877-9.16201C67.6896-6.96389 63.6675-6.54297 60.2533-6.54297L29.6666-6.54297C26.2525-6.54297 22.2303-6.96389 20.0322-9.16201C17.8341-11.3602 17.46-15.3355 17.46-18.7496L17.46-49.2896C17.46-52.7505 17.8341-56.7258 20.0322-58.924C22.2303-61.1221 26.2525-61.543 29.7133-61.543L60.2533-61.543C63.6675-61.543 67.6896-61.1221 69.8877-58.924C72.0858-56.7258 72.46-52.7505 72.46-49.3364ZM26.9085-21.3937L23.9488-16.483C23.8441-15.1022 24.2291-14.1044 25.1037-13.4896C25.9784-12.8748 27.2014-12.6957 28.773-12.9522L32.9648-19.2203C32.1902-20.6692 31.4326-21.3937 30.6919-21.3937C29.9511-21.3937 28.69-21.3937 26.9085-21.3937ZM22.2085-29.2902C18.3796-29.2902 18.3336-22.9748 22.2085-22.9748C24.7918-22.9748 35.7453-22.9748 55.0691-22.9748L60.5471-13.7253C61.3727-12.2676 62.6722-11.9032 64.4457-12.632C66.2193-13.3608 66.8128-14.7591 66.2263-16.8268L62.7763-22.9748L68.4538-22.9748C69.9244-23.5439 70.6598-24.5433 70.6598-25.9728C70.6598-27.4024 69.9244-28.5082 68.4538-29.2902L59.2156-29.2902L48.967-46.8408L52.9-54.0919C52.4518-55.394 51.8466-56.2893 51.0842-56.778C50.3218-57.2667 49.2613-57.3542 47.9029-57.0405L45.16-53.5027L42.5964-56.778C41.4861-57.4046 40.4507-57.4046 39.4903-56.778C38.5299-56.1514 37.9791-55.256 37.8379-54.0919L41.2904-47.2225L31.4405-29.2902C27.8385-29.2902 24.7612-29.2902 22.2085-29.2902ZM45.5078-40.763C45.5078-40.763 43.2224-36.9448 38.6514-29.3084C47.3538-29.185 51.705-29.1232 51.705-29.1232C51.705-29.1232 45.5078-40.763 45.5078-40.763Z"/>
  </g>
  <g id="Ultralight-S" transform="matrix(1 0 0 1 516.792 696)">
   <path class="SFSymbolsPreviewWireframe" d="M26.2038-65.0039L58.001-65.0039C62.9044-65.0039 64.6825-64.4934 66.4751-63.5347C68.2676-62.576 69.6745-61.1691 70.6332-59.3766C71.5919-57.584 72.1024-55.8059 72.1024-50.9025L72.1024-19.1053C72.1024-14.2019 71.5919-12.4238 70.6332-10.6312C69.6745-8.83866 68.2676-7.43182 66.4751-6.47313C64.6825-5.51444 62.9044-5.0039 58.001-5.0039L26.2038-5.0039C21.3004-5.0039 19.5223-5.51444 17.7297-6.47313C15.9372-7.43182 14.5303-8.83866 13.5716-10.6312C12.6129-12.4238 12.1024-14.2019 12.1024-19.1053L12.1024-50.9025C12.1024-55.8059 12.6129-57.584 13.5716-59.3766C14.5303-61.1691 15.9372-62.576 17.7297-63.5347C19.5223-64.4934 21.3004-65.0039 26.2038-65.0039ZM74.1026-66.3613C69.9522-70.4629 64.0928-71 57.8428-71L28.0576-71C21.8076-71 15.9483-70.4629 11.7979-66.3613C7.6963-62.2109 7.208-56.4004 7.208-50.1504L7.208-20.3652C7.208-14.0664 7.6963-8.30468 11.7979-4.15429C15.9483-0.0527281 21.7588 0.484381 28.0576 0.484381L57.8428 0.484381C64.0928 0.484381 69.9522-0.0527281 74.1026-4.15429C78.2041-8.30468 78.6924-14.0664 78.6924-20.3652L78.6924-50.1504C78.6924-56.4492 78.2041-62.2109 74.1026-66.3613ZM69.9024-50.3403L69.9024-19.7535C69.9024-16.3394 69.5282-12.3641 67.3301-10.1659C65.132-7.96779 61.1099-7.54687 57.6957-7.54687L27.109-7.54687C23.6949-7.54687 19.6727-7.96779 17.4746-10.1659C15.2765-12.3641 14.9024-16.3394 14.9024-19.7535L14.9024-50.2935C14.9024-53.7544 15.2765-57.7297 17.4746-59.9279C19.6727-62.126 23.6949-62.5469 27.1557-62.5469L57.6957-62.5469C61.1099-62.5469 65.132-62.126 67.3301-59.9279C69.5282-57.7297 69.9024-53.7544 69.9024-50.3403ZM24.3509-22.3976L21.3912-17.4869C21.2865-16.1061 21.6715-15.1083 22.5461-14.4935C23.4208-13.8787 24.6438-13.6996 26.2154-13.9561L30.4072-20.2242C29.6326-21.6731 28.875-22.3976 28.1343-22.3976C27.3935-22.3976 26.1324-22.3976 24.3509-22.3976ZM19.6509-30.2941C15.822-30.2941 15.776-23.9787 19.6509-23.9787C22.2342-23.9787 33.1877-23.9787 52.5115-23.9787L57.9895-14.7292C58.8151-13.2715 60.1146-12.9071 61.8881-13.6359C63.6617-14.3647 64.2552-15.763 63.6687-17.8307L60.2187-23.9787L65.8962-23.9787C67.3668-24.5478 68.1022-25.5472 68.1022-26.9767C68.1022-28.4063 67.3668-29.5121 65.8962-30.2941L56.658-30.2941L46.4094-47.8447L50.3424-55.0958C49.8942-56.3979 49.289-57.2932 48.5266-57.7819C47.7642-58.2706 46.7037-58.3581 45.3453-58.0444L42.6024-54.5066L40.0388-57.7819C38.9285-58.4085 37.8931-58.4085 36.9327-57.7819C35.9723-57.1553 35.4215-56.2599 35.2803-55.0958L38.7328-48.2264L28.8829-30.2941C25.2809-30.2941 22.2036-30.2941 19.6509-30.2941ZM42.9502-41.7669C42.9502-41.7669 40.6648-37.9487 36.0938-30.3123C44.7962-30.1889 49.1474-30.1271 49.1474-30.1271C49.1474-30.1271 42.9502-41.7669 42.9502-41.7669Z"/>
  </g>
 </g>
</svg>
